# xmcd
#
# Track frame offsets: 
#        150
#        19332
#        42007
#        61135
#
# Disc length: 1027 seconds
#
# Revision: 4
# Processed by: cddbd v1.5PL3 Copyright (c) Steve Scherf et al.
# Submitted via: ExactAudioCopy v0.95a4
#
DISCID=29040104
DTITLE=Seal - Prayer For The Dying
DYEAR=1994
DGENRE=
TTITLE0=Prayer For The Dying
TTITLE1=Dreaming In Metaphors (Piano Version)
TTITLE2=Prayer For The Dying (Instrumental)
TTITLE3=Crazy (Acoustic Version) (1991)
EXTD=
EXTT0=
EXTT1=
EXTT2=
EXTT3=
PLAYORDER=
